<svg id="right-arrow" xmlns="http://www.w3.org/2000/svg" width="20.728" height="17.244" viewBox="0 0 20.728 17.244">
  <defs>
    <style>
      .cls-1 {
        fill: #fff;
      }
    </style>
  </defs>
  <g id="Group_15" data-name="Group 15" transform="translate(0 0)">
    <path id="Path_13" data-name="Path 13" class="cls-1" d="M20.4,49.163l-7.486-7.486a1.138,1.138,0,0,0-1.6,0l-.68.68a1.126,1.126,0,0,0-.331.8,1.148,1.148,0,0,0,.331.812l4.367,4.377H1.12A1.107,1.107,0,0,0,0,49.463v.961a1.15,1.15,0,0,0,1.12,1.165H15.044l-4.416,4.4a1.124,1.124,0,0,0,0,1.593l.68.678a1.138,1.138,0,0,0,1.6,0L20.4,50.773a1.144,1.144,0,0,0,0-1.61Z" transform="translate(0 -41.346)"/>
  </g>
</svg>
